<svg width="120" height="120" viewBox="0 0 120 120" fill="none" xmlns="http://www.w3.org/2000/svg">
<g clip-path="url(#clip0_1_20)">
<path d="M117.737 54.6536L65.3438 2.26326C62.3282 -0.754093 57.4345 -0.754093 54.4153 2.26326L43.5357 13.1429L57.337 26.9443C60.5442 25.8607 64.2221 26.5876 66.7786 29.1442C69.3473 31.7171 70.0693 35.4264 68.9592 38.6439L82.26 51.9451C85.4779 50.8365 89.191 51.5537 91.7611 54.1281C95.3531 57.7187 95.3531 63.5383 91.7611 67.1313C88.1681 70.7247 82.3486 70.7247 78.7537 67.1313C76.0519 64.4266 75.3843 60.4586 76.7522 57.13L64.3481 44.7259L64.3467 77.3683C65.2459 77.8129 66.0672 78.4002 66.7786 79.1073C70.3706 82.6979 70.3706 88.5179 66.7786 92.1137C63.1856 95.7053 57.3633 95.7053 53.7754 92.1137C50.1834 88.5179 50.1834 82.6984 53.7754 79.1077C54.6362 78.2466 55.6593 77.5645 56.7853 77.1011V44.1545C55.6576 43.6941 54.6341 43.0117 53.7754 42.1477C51.0539 39.43 50.3995 35.4367 51.7941 32.0949L38.189 18.4885L2.26406 54.4113C-0.754686 57.4314 -0.754686 62.3256 2.26406 65.3434L54.6582 117.735C57.6745 120.752 62.5673 120.752 65.5875 117.735L117.736 65.5867C120.754 62.568 120.754 57.6709 117.736 54.6536" fill="#DE4C36"/>
</g>
<defs>
<clipPath id="clip0_1_20">
<rect width="120" height="120" fill="white"/>
</clipPath>
</defs>
</svg>
