<svg width="120" height="120" viewBox="0 0 120 120" fill="none" xmlns="http://www.w3.org/2000/svg">
<path d="M108.788 18.8625L87.165 8.45248C85.9439 7.86371 84.5699 7.66942 83.2335 7.89653C81.897 8.12364 80.6643 8.76091 79.7062 9.71998L8.925 74.25C8.06621 75.0292 7.55215 76.1177 7.49589 77.276C7.43963 78.4342 7.84578 79.5674 8.625 80.4262C8.71875 80.5275 8.8125 80.625 8.91375 80.715L14.6925 85.965C15.4476 86.6522 16.4196 87.0532 17.4396 87.0984C18.4596 87.1437 19.4632 86.8303 20.2762 86.2125L105.532 21.5625C106.176 21.0738 106.944 20.7747 107.749 20.6985C108.554 20.6224 109.364 20.7725 110.088 21.1319C110.811 21.4912 111.421 22.0455 111.847 22.7325C112.274 23.4194 112.5 24.2116 112.5 25.02V24.7687C112.5 23.5346 112.152 22.3256 111.495 21.2807C110.838 20.2358 109.9 19.3977 108.788 18.8625Z" fill="#0065A9"/>
<path d="M108.788 101.137L87.165 111.552C85.9436 112.138 84.57 112.332 83.2339 112.105C81.8979 111.877 80.6652 111.241 79.7062 110.284L8.925 45.75C8.06621 44.9707 7.55215 43.8823 7.49589 42.7241C7.43963 41.5657 7.84578 40.4326 8.625 39.5737C8.71875 39.4725 8.8125 39.375 8.91375 39.285L14.6925 34.035C15.4484 33.3449 16.4225 32.942 17.4451 32.8968C18.4677 32.8516 19.4736 33.1668 20.2875 33.7875L105.532 98.4375C106.176 98.9262 106.944 99.2254 107.749 99.3015C108.554 99.3776 109.364 99.2275 110.088 98.8681C110.811 98.5087 111.421 97.9545 111.847 97.2675C112.274 96.5806 112.5 95.7884 112.5 94.98V95.25C112.496 96.4809 112.145 97.6857 111.49 98.7269C110.833 99.768 109.896 100.603 108.788 101.137Z" fill="#007ACC"/>
<path d="M87.165 111.552C85.9436 112.138 84.5699 112.332 83.2339 112.105C81.8979 111.878 80.6652 111.241 79.7063 110.284C80.2448 110.816 80.9282 111.176 81.6708 111.32C82.4134 111.465 83.1823 111.388 83.8811 111.098C84.5798 110.807 85.1773 110.318 85.5987 109.689C86.0201 109.061 86.2467 108.321 86.25 107.565V12.435C86.2506 11.6748 86.0256 10.9316 85.6035 10.2994C85.1814 9.66723 84.581 9.17456 83.8787 8.88382C83.1764 8.59307 82.4035 8.51734 81.6581 8.66619C80.9126 8.81505 80.228 9.18181 79.6913 9.72001C80.6494 8.7613 81.8819 8.124 83.2181 7.89626C84.5544 7.66852 85.9282 7.86159 87.15 8.44876L108.768 18.8438C109.885 19.3763 110.826 20.2134 111.486 21.2584C112.148 22.3034 112.498 23.5139 112.5 24.75V95.25C112.5 96.4852 112.152 97.6953 111.494 98.7409C110.837 99.7866 109.898 100.625 108.783 101.16L87.165 111.552Z" fill="#1F9CF0"/>
</svg>
